<mxfile host="app.diagrams.net" modified="2023-04-17T05:41:50.911Z" agent="Mozilla/5.0 (Windows NT 10.0; Win64; x64) AppleWebKit/537.36 (KHTML, like Gecko) Chrome/110.0.0.0 YaBrowser/23.3.1.895 Yowser/2.5 Safari/537.36" etag="Ah3205Na4-vohIjnTJkq" version="21.1.8" type="device">
  <diagram name="Страница 1" id="P1Myi__VwQwnpE6c3eT5">
    <mxGraphModel dx="2181" dy="1229" grid="0" gridSize="10" guides="1" tooltips="1" connect="1" arrows="1" fold="1" page="1" pageScale="1" pageWidth="827" pageHeight="1169" math="0" shadow="0">
      <root>
        <mxCell id="0" />
        <mxCell id="1" parent="0" />
        <mxCell id="rwbHV0YqM4iH79ZdwpMF-1" value="" style="endArrow=none;dashed=1;html=1;rounded=0;" parent="1" edge="1">
          <mxGeometry width="50" height="50" relative="1" as="geometry">
            <mxPoint x="160" y="1316" as="sourcePoint" />
            <mxPoint x="160" y="40" as="targetPoint" />
          </mxGeometry>
        </mxCell>
        <mxCell id="rwbHV0YqM4iH79ZdwpMF-2" value="" style="endArrow=none;dashed=1;html=1;rounded=0;" parent="1" edge="1">
          <mxGeometry width="50" height="50" relative="1" as="geometry">
            <mxPoint x="340" y="1308" as="sourcePoint" />
            <mxPoint x="340" y="40" as="targetPoint" />
          </mxGeometry>
        </mxCell>
        <mxCell id="rwbHV0YqM4iH79ZdwpMF-3" value="" style="endArrow=none;dashed=1;html=1;rounded=0;" parent="1" edge="1">
          <mxGeometry width="50" height="50" relative="1" as="geometry">
            <mxPoint x="520" y="1308" as="sourcePoint" />
            <mxPoint x="520" y="40" as="targetPoint" />
          </mxGeometry>
        </mxCell>
        <mxCell id="rwbHV0YqM4iH79ZdwpMF-4" value="" style="endArrow=none;dashed=1;html=1;rounded=0;" parent="1" edge="1">
          <mxGeometry width="50" height="50" relative="1" as="geometry">
            <mxPoint x="700" y="1315" as="sourcePoint" />
            <mxPoint x="700" y="40" as="targetPoint" />
          </mxGeometry>
        </mxCell>
        <mxCell id="rwbHV0YqM4iH79ZdwpMF-5" value="&lt;font style=&quot;font-size: 18px;&quot;&gt;Администратор&lt;/font&gt;" style="text;html=1;align=center;verticalAlign=middle;resizable=0;points=[];autosize=1;strokeColor=none;fillColor=none;" parent="1" vertex="1">
          <mxGeometry y="40" width="150" height="40" as="geometry" />
        </mxCell>
        <mxCell id="rwbHV0YqM4iH79ZdwpMF-6" value="&lt;font style=&quot;font-size: 18px;&quot;&gt;Звукорежиссёр&lt;/font&gt;" style="text;html=1;align=center;verticalAlign=middle;resizable=0;points=[];autosize=1;strokeColor=none;fillColor=none;" parent="1" vertex="1">
          <mxGeometry x="170" y="40" width="150" height="40" as="geometry" />
        </mxCell>
        <mxCell id="rwbHV0YqM4iH79ZdwpMF-7" value="&lt;font style=&quot;font-size: 18px;&quot;&gt;Складской работник&lt;/font&gt;" style="text;html=1;align=center;verticalAlign=middle;resizable=0;points=[];autosize=1;strokeColor=none;fillColor=none;" parent="1" vertex="1">
          <mxGeometry x="335" y="40" width="190" height="40" as="geometry" />
        </mxCell>
        <mxCell id="rwbHV0YqM4iH79ZdwpMF-8" value="&lt;font style=&quot;font-size: 18px;&quot;&gt;Артист&lt;/font&gt;" style="text;html=1;align=center;verticalAlign=middle;resizable=0;points=[];autosize=1;strokeColor=none;fillColor=none;" parent="1" vertex="1">
          <mxGeometry x="565" y="40" width="80" height="40" as="geometry" />
        </mxCell>
        <mxCell id="rwbHV0YqM4iH79ZdwpMF-9" value="&lt;font style=&quot;font-size: 18px;&quot;&gt;Бухгалтер&lt;/font&gt;" style="text;html=1;align=center;verticalAlign=middle;resizable=0;points=[];autosize=1;strokeColor=none;fillColor=none;" parent="1" vertex="1">
          <mxGeometry x="730" y="40" width="110" height="40" as="geometry" />
        </mxCell>
        <mxCell id="rwbHV0YqM4iH79ZdwpMF-10" value="" style="ellipse;whiteSpace=wrap;html=1;strokeColor=#000000;fillColor=#000000;" parent="1" vertex="1">
          <mxGeometry x="573.13" y="90" width="63.75" height="60" as="geometry" />
        </mxCell>
        <mxCell id="rwbHV0YqM4iH79ZdwpMF-12" value="&lt;font style=&quot;font-size: 14px;&quot;&gt;Получает запрос на сотрудничество&lt;/font&gt;" style="rounded=1;whiteSpace=wrap;html=1;" parent="1" vertex="1">
          <mxGeometry x="15" y="180" width="120" height="60" as="geometry" />
        </mxCell>
        <mxCell id="rwbHV0YqM4iH79ZdwpMF-18" value="&lt;font style=&quot;font-size: 14px;&quot;&gt;Подписывает договор о сотрудничестве&lt;/font&gt;" style="rounded=1;whiteSpace=wrap;html=1;" parent="1" vertex="1">
          <mxGeometry x="15" y="270" width="120" height="60" as="geometry" />
        </mxCell>
        <mxCell id="rwbHV0YqM4iH79ZdwpMF-19" value="" style="endArrow=classic;html=1;rounded=0;exitX=0.5;exitY=1;exitDx=0;exitDy=0;" parent="1" source="rwbHV0YqM4iH79ZdwpMF-18" target="rwbHV0YqM4iH79ZdwpMF-20" edge="1">
          <mxGeometry width="50" height="50" relative="1" as="geometry">
            <mxPoint x="390" y="500" as="sourcePoint" />
            <mxPoint x="75" y="370" as="targetPoint" />
          </mxGeometry>
        </mxCell>
        <mxCell id="rwbHV0YqM4iH79ZdwpMF-20" value="&lt;font style=&quot;font-size: 14px;&quot;&gt;Получает треки от исполнителя&lt;/font&gt;" style="rounded=1;whiteSpace=wrap;html=1;" parent="1" vertex="1">
          <mxGeometry x="15" y="360" width="120" height="60" as="geometry" />
        </mxCell>
        <mxCell id="rwbHV0YqM4iH79ZdwpMF-21" value="" style="endArrow=classic;html=1;rounded=0;exitX=1;exitY=0.5;exitDx=0;exitDy=0;" parent="1" source="rwbHV0YqM4iH79ZdwpMF-20" target="rwbHV0YqM4iH79ZdwpMF-22" edge="1">
          <mxGeometry width="50" height="50" relative="1" as="geometry">
            <mxPoint x="390" y="490" as="sourcePoint" />
            <mxPoint x="180" y="390" as="targetPoint" />
          </mxGeometry>
        </mxCell>
        <mxCell id="rwbHV0YqM4iH79ZdwpMF-22" value="&lt;font style=&quot;font-size: 14px;&quot;&gt;Прослушивает треки исполнителя&lt;/font&gt;" style="rounded=1;whiteSpace=wrap;html=1;" parent="1" vertex="1">
          <mxGeometry x="185" y="360" width="120" height="60" as="geometry" />
        </mxCell>
        <mxCell id="rwbHV0YqM4iH79ZdwpMF-23" value="" style="endArrow=classic;html=1;rounded=0;exitX=0.5;exitY=1;exitDx=0;exitDy=0;" parent="1" source="rwbHV0YqM4iH79ZdwpMF-22" edge="1">
          <mxGeometry width="50" height="50" relative="1" as="geometry">
            <mxPoint x="390" y="490" as="sourcePoint" />
            <mxPoint x="245" y="450" as="targetPoint" />
          </mxGeometry>
        </mxCell>
        <mxCell id="rwbHV0YqM4iH79ZdwpMF-24" value="&lt;font style=&quot;font-size: 14px;&quot;&gt;Составляет график работы в студии&lt;/font&gt;" style="rounded=1;whiteSpace=wrap;html=1;" parent="1" vertex="1">
          <mxGeometry x="190" y="450" width="120" height="60" as="geometry" />
        </mxCell>
        <mxCell id="rwbHV0YqM4iH79ZdwpMF-25" value="" style="endArrow=classic;html=1;rounded=0;exitX=0.5;exitY=1;exitDx=0;exitDy=0;" parent="1" source="rwbHV0YqM4iH79ZdwpMF-24" target="rwbHV0YqM4iH79ZdwpMF-26" edge="1">
          <mxGeometry width="50" height="50" relative="1" as="geometry">
            <mxPoint x="390" y="480" as="sourcePoint" />
            <mxPoint x="250" y="540" as="targetPoint" />
          </mxGeometry>
        </mxCell>
        <mxCell id="rwbHV0YqM4iH79ZdwpMF-26" value="&lt;font style=&quot;font-size: 14px;&quot;&gt;Хорошее состояние звуковой аппаратуры&lt;/font&gt;" style="rounded=1;whiteSpace=wrap;html=1;shape=rhombus;perimeter=rhombusPerimeter;" parent="1" vertex="1">
          <mxGeometry x="176" y="530.5" width="148" height="79" as="geometry" />
        </mxCell>
        <mxCell id="rwbHV0YqM4iH79ZdwpMF-30" value="&lt;font style=&quot;font-size: 14px;&quot;&gt;Отзывает испорченную звуковую аппаратуру&amp;nbsp;&lt;/font&gt;" style="rounded=1;whiteSpace=wrap;html=1;" parent="1" vertex="1">
          <mxGeometry x="360" y="648" width="120" height="70" as="geometry" />
        </mxCell>
        <mxCell id="rwbHV0YqM4iH79ZdwpMF-31" value="" style="endArrow=classic;html=1;rounded=0;exitX=0.5;exitY=1;exitDx=0;exitDy=0;entryX=0.5;entryY=0;entryDx=0;entryDy=0;" parent="1" source="rwbHV0YqM4iH79ZdwpMF-30" target="rwbHV0YqM4iH79ZdwpMF-32" edge="1">
          <mxGeometry width="50" height="50" relative="1" as="geometry">
            <mxPoint x="390" y="660" as="sourcePoint" />
            <mxPoint x="420" y="740" as="targetPoint" />
          </mxGeometry>
        </mxCell>
        <mxCell id="rwbHV0YqM4iH79ZdwpMF-32" value="&lt;font style=&quot;font-size: 14px;&quot;&gt;Передаёт информацию о звуковой аппаратуре&amp;nbsp;&lt;/font&gt;" style="rounded=1;whiteSpace=wrap;html=1;" parent="1" vertex="1">
          <mxGeometry x="360" y="747.5" width="120" height="70" as="geometry" />
        </mxCell>
        <mxCell id="rwbHV0YqM4iH79ZdwpMF-33" value="" style="endArrow=classic;html=1;rounded=0;exitX=0;exitY=0.5;exitDx=0;exitDy=0;" parent="1" source="rwbHV0YqM4iH79ZdwpMF-32" target="rwbHV0YqM4iH79ZdwpMF-34" edge="1">
          <mxGeometry width="50" height="50" relative="1" as="geometry">
            <mxPoint x="430" y="880" as="sourcePoint" />
            <mxPoint x="120" y="770" as="targetPoint" />
          </mxGeometry>
        </mxCell>
        <mxCell id="rwbHV0YqM4iH79ZdwpMF-34" value="&lt;font style=&quot;font-size: 14px;&quot;&gt;Составляет заказ на новую звуковую аппаратуру&amp;nbsp;&lt;/font&gt;" style="rounded=1;whiteSpace=wrap;html=1;" parent="1" vertex="1">
          <mxGeometry x="30" y="745" width="120" height="75" as="geometry" />
        </mxCell>
        <mxCell id="rwbHV0YqM4iH79ZdwpMF-37" value="" style="endArrow=classic;html=1;rounded=0;exitX=0.5;exitY=1;exitDx=0;exitDy=0;" parent="1" source="rwbHV0YqM4iH79ZdwpMF-34" target="rwbHV0YqM4iH79ZdwpMF-38" edge="1">
          <mxGeometry width="50" height="50" relative="1" as="geometry">
            <mxPoint x="65" y="920" as="sourcePoint" />
            <mxPoint x="90" y="860" as="targetPoint" />
          </mxGeometry>
        </mxCell>
        <mxCell id="rwbHV0YqM4iH79ZdwpMF-38" value="&lt;font style=&quot;font-size: 14px;&quot;&gt;Договор с рекламодателем&lt;/font&gt;" style="rounded=1;whiteSpace=wrap;html=1;" parent="1" vertex="1">
          <mxGeometry x="30" y="850" width="120" height="60" as="geometry" />
        </mxCell>
        <mxCell id="rwbHV0YqM4iH79ZdwpMF-39" value="" style="endArrow=classic;html=1;rounded=0;" parent="1" target="bGMZOdhArLOagWg4OVOi-7" edge="1">
          <mxGeometry width="50" height="50" relative="1" as="geometry">
            <mxPoint x="150" y="880" as="sourcePoint" />
            <mxPoint x="740" y="880" as="targetPoint" />
          </mxGeometry>
        </mxCell>
        <mxCell id="rwbHV0YqM4iH79ZdwpMF-43" value="&lt;span style=&quot;font-size: 14px;&quot;&gt;Составляет зарплатную ведомость&lt;/span&gt;" style="rounded=1;whiteSpace=wrap;html=1;" parent="1" vertex="1">
          <mxGeometry x="740" y="1060" width="120" height="60" as="geometry" />
        </mxCell>
        <mxCell id="rwbHV0YqM4iH79ZdwpMF-44" value="" style="endArrow=classic;html=1;rounded=0;exitX=0;exitY=0.5;exitDx=0;exitDy=0;entryX=1;entryY=0.5;entryDx=0;entryDy=0;" parent="1" source="rwbHV0YqM4iH79ZdwpMF-43" target="rwbHV0YqM4iH79ZdwpMF-49" edge="1">
          <mxGeometry width="50" height="50" relative="1" as="geometry">
            <mxPoint x="460" y="990" as="sourcePoint" />
            <mxPoint x="150" y="970" as="targetPoint" />
          </mxGeometry>
        </mxCell>
        <mxCell id="rwbHV0YqM4iH79ZdwpMF-49" value="&lt;font style=&quot;font-size: 14px;&quot;&gt;Выплачивает зарплату&lt;/font&gt;" style="rounded=1;whiteSpace=wrap;html=1;" parent="1" vertex="1">
          <mxGeometry x="15" y="1060" width="120" height="60" as="geometry" />
        </mxCell>
        <mxCell id="bGMZOdhArLOagWg4OVOi-1" value="" style="endArrow=classic;html=1;rounded=0;exitX=0.5;exitY=1;exitDx=0;exitDy=0;entryX=0.5;entryY=0;entryDx=0;entryDy=0;" parent="1" source="rwbHV0YqM4iH79ZdwpMF-10" target="bGMZOdhArLOagWg4OVOi-3" edge="1">
          <mxGeometry width="50" height="50" relative="1" as="geometry">
            <mxPoint x="640" y="180" as="sourcePoint" />
            <mxPoint x="620" y="180" as="targetPoint" />
          </mxGeometry>
        </mxCell>
        <mxCell id="bGMZOdhArLOagWg4OVOi-3" value="&lt;font style=&quot;font-size: 14px;&quot;&gt;Подаёт запрос о сотрудничестве&lt;/font&gt;" style="rounded=1;whiteSpace=wrap;html=1;" parent="1" vertex="1">
          <mxGeometry x="545.01" y="180" width="120" height="60" as="geometry" />
        </mxCell>
        <mxCell id="bGMZOdhArLOagWg4OVOi-4" value="" style="endArrow=classic;html=1;rounded=0;entryX=1;entryY=0.5;entryDx=0;entryDy=0;exitX=0;exitY=0.5;exitDx=0;exitDy=0;" parent="1" source="bGMZOdhArLOagWg4OVOi-3" target="rwbHV0YqM4iH79ZdwpMF-12" edge="1">
          <mxGeometry width="50" height="50" relative="1" as="geometry">
            <mxPoint x="560" y="210" as="sourcePoint" />
            <mxPoint x="850" y="210" as="targetPoint" />
          </mxGeometry>
        </mxCell>
        <mxCell id="bGMZOdhArLOagWg4OVOi-5" value="" style="endArrow=classic;html=1;rounded=0;exitX=0.5;exitY=1;exitDx=0;exitDy=0;entryX=0.5;entryY=0;entryDx=0;entryDy=0;" parent="1" source="rwbHV0YqM4iH79ZdwpMF-12" target="rwbHV0YqM4iH79ZdwpMF-18" edge="1">
          <mxGeometry width="50" height="50" relative="1" as="geometry">
            <mxPoint x="800" y="260" as="sourcePoint" />
            <mxPoint x="850" y="210" as="targetPoint" />
          </mxGeometry>
        </mxCell>
        <mxCell id="bGMZOdhArLOagWg4OVOi-7" value="&lt;font style=&quot;font-size: 14px;&quot;&gt;Составляет отчёты о прибыли&lt;/font&gt;" style="rounded=1;whiteSpace=wrap;html=1;" parent="1" vertex="1">
          <mxGeometry x="740" y="850" width="120" height="60" as="geometry" />
        </mxCell>
        <mxCell id="bGMZOdhArLOagWg4OVOi-10" value="" style="endArrow=classic;html=1;rounded=0;exitX=0.5;exitY=1;exitDx=0;exitDy=0;" parent="1" source="rwbHV0YqM4iH79ZdwpMF-49" target="bGMZOdhArLOagWg4OVOi-11" edge="1">
          <mxGeometry width="50" height="50" relative="1" as="geometry">
            <mxPoint x="800" y="830" as="sourcePoint" />
            <mxPoint x="90" y="1040" as="targetPoint" />
          </mxGeometry>
        </mxCell>
        <mxCell id="bGMZOdhArLOagWg4OVOi-11" value="&lt;font style=&quot;font-size: 14px;&quot;&gt;Реализует сотрудничество&lt;/font&gt;" style="rounded=1;whiteSpace=wrap;html=1;" parent="1" vertex="1">
          <mxGeometry x="15" y="1169" width="120" height="60" as="geometry" />
        </mxCell>
        <mxCell id="bGMZOdhArLOagWg4OVOi-12" value="&lt;font style=&quot;font-size: 14px;&quot;&gt;Составляет отчёт о расходах&lt;/font&gt;" style="rounded=1;whiteSpace=wrap;html=1;" parent="1" vertex="1">
          <mxGeometry x="740" y="950" width="120" height="60" as="geometry" />
        </mxCell>
        <mxCell id="bGMZOdhArLOagWg4OVOi-13" value="" style="endArrow=classic;html=1;rounded=0;exitX=0.5;exitY=1;exitDx=0;exitDy=0;entryX=0.5;entryY=0;entryDx=0;entryDy=0;" parent="1" source="bGMZOdhArLOagWg4OVOi-7" target="bGMZOdhArLOagWg4OVOi-12" edge="1">
          <mxGeometry width="50" height="50" relative="1" as="geometry">
            <mxPoint x="800" y="810" as="sourcePoint" />
            <mxPoint x="850" y="760" as="targetPoint" />
          </mxGeometry>
        </mxCell>
        <mxCell id="bGMZOdhArLOagWg4OVOi-14" value="" style="endArrow=classic;html=1;rounded=0;exitX=0.5;exitY=1;exitDx=0;exitDy=0;entryX=0.5;entryY=0;entryDx=0;entryDy=0;" parent="1" source="bGMZOdhArLOagWg4OVOi-12" target="rwbHV0YqM4iH79ZdwpMF-43" edge="1">
          <mxGeometry width="50" height="50" relative="1" as="geometry">
            <mxPoint x="800" y="810" as="sourcePoint" />
            <mxPoint x="850" y="760" as="targetPoint" />
          </mxGeometry>
        </mxCell>
        <mxCell id="vYU1hyRCVCvR-IQjzLFW-1" value="" style="endArrow=classic;html=1;rounded=0;exitX=1;exitY=0.5;exitDx=0;exitDy=0;entryX=0.5;entryY=0;entryDx=0;entryDy=0;" edge="1" parent="1" source="rwbHV0YqM4iH79ZdwpMF-26" target="rwbHV0YqM4iH79ZdwpMF-30">
          <mxGeometry width="50" height="50" relative="1" as="geometry">
            <mxPoint x="358" y="573" as="sourcePoint" />
            <mxPoint x="444" y="572" as="targetPoint" />
            <Array as="points">
              <mxPoint x="420" y="570" />
            </Array>
          </mxGeometry>
        </mxCell>
        <mxCell id="vYU1hyRCVCvR-IQjzLFW-2" value="&lt;font style=&quot;font-size: 14px;&quot;&gt;Нет&lt;/font&gt;" style="edgeLabel;html=1;align=center;verticalAlign=middle;resizable=0;points=[];" vertex="1" connectable="0" parent="vYU1hyRCVCvR-IQjzLFW-1">
          <mxGeometry x="-0.7729" y="1" relative="1" as="geometry">
            <mxPoint as="offset" />
          </mxGeometry>
        </mxCell>
        <mxCell id="vYU1hyRCVCvR-IQjzLFW-3" value="" style="endArrow=classic;html=1;rounded=0;exitX=0.5;exitY=1;exitDx=0;exitDy=0;entryX=1;entryY=0.25;entryDx=0;entryDy=0;" edge="1" parent="1" source="rwbHV0YqM4iH79ZdwpMF-26" target="rwbHV0YqM4iH79ZdwpMF-38">
          <mxGeometry width="50" height="50" relative="1" as="geometry">
            <mxPoint x="250" y="680" as="sourcePoint" />
            <mxPoint x="250" y="853" as="targetPoint" />
            <Array as="points">
              <mxPoint x="253" y="865" />
            </Array>
          </mxGeometry>
        </mxCell>
        <mxCell id="vYU1hyRCVCvR-IQjzLFW-4" value="&lt;font style=&quot;font-size: 14px;&quot;&gt;Да&lt;/font&gt;" style="edgeLabel;html=1;align=center;verticalAlign=middle;resizable=0;points=[];" vertex="1" connectable="0" parent="vYU1hyRCVCvR-IQjzLFW-3">
          <mxGeometry x="-0.5924" y="4" relative="1" as="geometry">
            <mxPoint as="offset" />
          </mxGeometry>
        </mxCell>
        <mxCell id="vYU1hyRCVCvR-IQjzLFW-5" value="" style="endArrow=classic;html=1;rounded=0;exitX=0.5;exitY=1;exitDx=0;exitDy=0;" edge="1" parent="1" source="bGMZOdhArLOagWg4OVOi-11" target="vYU1hyRCVCvR-IQjzLFW-6">
          <mxGeometry width="50" height="50" relative="1" as="geometry">
            <mxPoint x="83" y="1341" as="sourcePoint" />
            <mxPoint x="78" y="1270" as="targetPoint" />
          </mxGeometry>
        </mxCell>
        <mxCell id="vYU1hyRCVCvR-IQjzLFW-6" value="" style="ellipse;whiteSpace=wrap;html=1;aspect=fixed;fillColor=#000000;" vertex="1" parent="1">
          <mxGeometry x="49.5" y="1245" width="51" height="51" as="geometry" />
        </mxCell>
      </root>
    </mxGraphModel>
  </diagram>
</mxfile>
